<svg width="127" height="43" viewBox="0 0 127 43" fill="none" xmlns="http://www.w3.org/2000/svg">
<g filter="url(#filter0_d_2_3)">
<path d="M1.632 36C1.152 36 0.912 35.824 0.912 35.472C0.912 35.184 1.12 34.992 1.536 34.896L2.64 34.704C3.312 34.576 3.744 34.4 3.936 34.176C4.16 33.952 4.272 33.504 4.272 32.832V4.608C4.272 3.936 4.16 3.488 3.936 3.264C3.744 3.04 3.312 2.864 2.64 2.736L1.536 2.544C1.12 2.448 0.912 2.256 0.912 1.968C0.912 1.616 1.152 1.44 1.632 1.44H17.088C17.824 1.44 18.224 1.808 18.288 2.544L18.672 10.512C18.736 11.056 18.528 11.328 18.048 11.328C17.664 11.328 17.44 11.12 17.376 10.704L17.136 9.12C16.88 7.456 16.432 6.16 15.792 5.232C15.152 4.304 14.432 3.648 13.632 3.264C12.832 2.848 12.064 2.64 11.328 2.64C9.92 2.64 8.96 2.864 8.448 3.312C7.936 3.76 7.68 4.448 7.68 5.376V16.704C7.68 17.152 7.904 17.376 8.352 17.376H10.032C11.44 17.376 12.304 16.624 12.624 15.12L13.152 12.72C13.248 12.304 13.488 12.096 13.872 12.096C14.256 12.096 14.448 12.368 14.448 12.912V23.712C14.448 24.256 14.256 24.528 13.872 24.528C13.488 24.528 13.248 24.32 13.152 23.904L12.624 21.552C12.4 20.432 12.08 19.696 11.664 19.344C11.28 18.992 10.72 18.816 9.984 18.816H8.352C7.904 18.816 7.68 19.04 7.68 19.488V32.592C7.68 33.264 7.776 33.744 7.968 34.032C8.192 34.288 8.64 34.464 9.312 34.56L11.568 34.896C11.92 34.96 12.096 35.136 12.096 35.424C12.096 35.808 11.856 36 11.376 36H1.632ZM17.6216 36C17.1416 36 16.9016 35.84 16.9016 35.52C16.9016 35.2 17.1256 34.992 17.5736 34.896L18.2936 34.752C18.9336 34.624 19.4136 34.32 19.7336 33.84C20.0536 33.328 20.3256 32.624 20.5496 31.728L27.9896 1.728C28.0536 1.408 28.1496 1.2 28.2776 1.104C28.4376 1.008 28.5816 0.959999 28.7096 0.959999C28.8696 0.959999 29.0136 1.008 29.1416 1.104C29.3016 1.2 29.4136 1.408 29.4776 1.728L37.0616 32.16C37.2856 33.056 37.5416 33.68 37.8296 34.032C38.1176 34.384 38.5656 34.624 39.1736 34.752L39.8936 34.896C40.3416 34.992 40.5656 35.2 40.5656 35.52C40.5656 35.84 40.3256 36 39.8456 36H31.6376C31.1896 36 30.9656 35.824 30.9656 35.472C30.9656 35.12 31.2376 34.928 31.7816 34.896L32.6936 34.8C33.2376 34.736 33.5736 34.56 33.7016 34.272C33.8616 33.984 33.8616 33.488 33.7016 32.784L31.8776 25.344C31.6856 24.512 31.1576 24.096 30.2936 24.096H25.2536C24.4216 24.096 23.8936 24.512 23.6696 25.344L22.0376 31.776C21.5576 33.6 22.0376 34.608 23.4776 34.8L24.1976 34.896C24.7416 34.992 25.0136 35.184 25.0136 35.472C25.0136 35.824 24.7896 36 24.3416 36H17.6216ZM25.1096 22.656H30.3896C30.9016 22.656 31.1096 22.384 31.0136 21.84L27.9416 8.976H27.7016L24.4856 21.84C24.3896 22.384 24.5976 22.656 25.1096 22.656ZM51.0225 36.432C49.4865 36.432 48.0465 35.984 46.7025 35.088C45.3585 34.16 44.1745 32.896 43.1505 31.296C42.1585 29.696 41.3745 27.824 40.7985 25.68C40.2545 23.504 39.9825 21.168 39.9825 18.672C39.9825 16.176 40.2545 13.856 40.7985 11.712C41.3745 9.568 42.1585 7.696 43.1505 6.096C44.1745 4.464 45.3585 3.2 46.7025 2.304C48.0465 1.408 49.4865 0.959999 51.0225 0.959999C52.5585 0.959999 53.9825 1.408 55.2945 2.304C56.6385 3.2 57.8225 4.464 58.8465 6.096C59.8705 7.696 60.6545 9.568 61.1985 11.712C61.7745 13.856 62.0625 16.176 62.0625 18.672C62.0625 21.168 61.7745 23.504 61.1985 25.68C60.6545 27.824 59.8705 29.696 58.8465 31.296C57.8225 32.896 56.6385 34.16 55.2945 35.088C53.9825 35.984 52.5585 36.432 51.0225 36.432ZM51.0225 35.136C53.2945 35.136 55.0705 33.776 56.3505 31.056C57.6305 28.336 58.2705 24.208 58.2705 18.672C58.2705 13.136 57.6305 9.024 56.3505 6.336C55.0705 3.616 53.2945 2.256 51.0225 2.256C48.7825 2.256 47.0065 3.616 45.6945 6.336C44.4145 9.024 43.7745 13.136 43.7745 18.672C43.7745 24.208 44.4145 28.336 45.6945 31.056C47.0065 33.776 48.7825 35.136 51.0225 35.136ZM69.0859 36C68.6059 36 68.3659 35.824 68.3659 35.472C68.3659 35.12 68.5739 34.928 68.9899 34.896L71.1499 34.56C71.7899 34.464 72.2219 34.304 72.4459 34.08C72.6699 33.824 72.7819 33.36 72.7819 32.688V3.888C72.7819 3.44 72.6859 3.12 72.4939 2.928C72.3019 2.736 71.9019 2.64 71.2939 2.64C70.1099 2.64 68.9419 3.152 67.7899 4.176C66.6379 5.2 65.8859 6.848 65.5339 9.12L65.2939 10.704C65.2299 11.12 65.0059 11.328 64.6219 11.328C64.1419 11.328 63.9339 11.056 63.9979 10.512L64.4299 1.824C64.4939 1.088 64.7819 0.719999 65.2939 0.719999C65.5179 0.719999 65.7259 0.783999 65.9179 0.912C66.1099 1.008 66.4299 1.12 66.8779 1.248C67.3579 1.376 68.1099 1.44 69.1339 1.44H79.8379C80.8619 1.44 81.5979 1.376 82.0459 1.248C82.5259 1.12 82.8619 1.008 83.0539 0.912C83.2779 0.783999 83.4859 0.719999 83.6779 0.719999C84.1899 0.719999 84.4779 1.088 84.5419 1.824L84.9739 10.512C85.0379 11.056 84.8299 11.328 84.3499 11.328C83.9659 11.328 83.7419 11.12 83.6779 10.704L83.4379 9.12C83.1179 6.848 82.3819 5.2 81.2299 4.176C80.0779 3.152 78.8939 2.64 77.6779 2.64C77.0699 2.64 76.6699 2.736 76.4779 2.928C76.2859 3.12 76.1899 3.44 76.1899 3.888V32.688C76.1899 33.36 76.3019 33.824 76.5259 34.08C76.7819 34.304 77.2139 34.464 77.8219 34.56L79.9819 34.896C80.3979 34.928 80.6059 35.12 80.6059 35.472C80.6059 35.824 80.3659 36 79.8859 36H69.0859ZM106.283 36.48C106.155 36.48 106.027 36.432 105.899 36.336C105.771 36.24 105.675 36.032 105.611 35.712L101.915 20.832C101.883 20.576 101.787 20.464 101.627 20.496C101.467 20.496 101.355 20.608 101.291 20.832L97.1629 35.712C97.0669 36.032 96.9549 36.24 96.8269 36.336C96.7309 36.432 96.6189 36.48 96.4909 36.48C96.3629 36.48 96.2189 36.432 96.0589 36.336C95.9309 36.24 95.8349 36.032 95.7709 35.712L88.1869 5.28C87.9629 4.384 87.7069 3.76 87.4189 3.408C87.1629 3.056 86.7149 2.816 86.0749 2.688L85.3549 2.544C84.9069 2.448 84.6829 2.24 84.6829 1.92C84.6829 1.6 84.9229 1.44 85.4029 1.44H93.1309C93.5789 1.44 93.8029 1.616 93.8029 1.968C93.8029 2.256 93.5629 2.448 93.0829 2.544L92.5549 2.64C92.0109 2.736 91.6589 2.928 91.4989 3.216C91.3709 3.472 91.3869 3.952 91.5469 4.656L97.2109 28.08C97.2749 28.304 97.3709 28.416 97.4989 28.416C97.6589 28.416 97.7709 28.304 97.8349 28.08L99.9949 20.256C100.347 19.04 100.523 17.92 100.523 16.896C100.523 15.872 100.363 14.736 100.043 13.488L98.0269 5.28C97.8029 4.384 97.5789 3.744 97.3549 3.36C97.1629 2.976 96.8909 2.752 96.5389 2.688L95.8189 2.544C95.3709 2.448 95.1469 2.24 95.1469 1.92C95.1469 1.6 95.3869 1.44 95.8669 1.44H102.443C102.891 1.44 103.115 1.616 103.115 1.968C103.115 2.256 102.875 2.448 102.395 2.544L101.867 2.64C101.451 2.704 101.195 2.88 101.099 3.168C101.035 3.456 101.083 3.952 101.243 4.656L102.875 11.52C102.939 11.744 103.035 11.856 103.163 11.856C103.323 11.856 103.435 11.744 103.499 11.52L105.227 5.664C105.579 4.448 105.707 3.648 105.611 3.264C105.547 2.88 105.371 2.672 105.083 2.64L104.555 2.544C104.075 2.448 103.835 2.256 103.835 1.968C103.835 1.616 104.059 1.44 104.507 1.44H109.067C109.611 1.44 109.883 1.616 109.883 1.968C109.883 2.288 109.611 2.48 109.067 2.544L108.539 2.592C108.123 2.624 107.771 2.88 107.483 3.36C107.227 3.84 106.939 4.624 106.619 5.712L104.795 12C104.443 13.184 104.251 14.304 104.219 15.36C104.219 16.384 104.363 17.52 104.651 18.768L106.811 27.792C106.875 28.016 106.971 28.128 107.099 28.128C107.259 28.128 107.355 28.016 107.387 27.792L112.907 5.664C113.355 3.808 113.067 2.8 112.043 2.64L111.515 2.544C111.035 2.448 110.795 2.24 110.795 1.92C110.795 1.6 111.019 1.44 111.467 1.44H116.843C117.387 1.44 117.659 1.616 117.659 1.968C117.659 2.288 117.387 2.48 116.843 2.544L116.315 2.592C115.899 2.624 115.531 2.88 115.211 3.36C114.923 3.808 114.651 4.592 114.395 5.712L106.955 35.712C106.891 36.032 106.795 36.24 106.667 36.336C106.539 36.432 106.411 36.48 106.283 36.48Z" fill="#3B2222" fill-opacity="0.92" shape-rendering="crispEdges"/>
</g>
<defs>
<filter id="filter0_d_2_3" x="0.911987" y="0.720001" width="125.347" height="41.36" filterUnits="userSpaceOnUse" color-interpolation-filters="sRGB">
<feFlood flood-opacity="0" result="BackgroundImageFix"/>
<feColorMatrix in="SourceAlpha" type="matrix" values="0 0 0 0 0 0 0 0 0 0 0 0 0 0 0 0 0 0 127 0" result="hardAlpha"/>
<feOffset dx="6" dy="3"/>
<feGaussianBlur stdDeviation="1.3"/>
<feComposite in2="hardAlpha" operator="out"/>
<feColorMatrix type="matrix" values="0 0 0 0 0.0868491 0 0 0 0 0.00843193 0 0 0 0 0.182692 0 0 0 0.25 0"/>
<feBlend mode="normal" in2="BackgroundImageFix" result="effect1_dropShadow_2_3"/>
<feBlend mode="normal" in="SourceGraphic" in2="effect1_dropShadow_2_3" result="shape"/>
</filter>
</defs>
</svg>
